<?xml version="1.0" encoding="utf-8"?>
<!-- Generator: Adobe Illustrator 24.3.0, SVG Export Plug-In . SVG Version: 6.00 Build 0)  -->
<svg version="1.1"
	 id="Express" xmlns:cc="http://creativecommons.org/ns#" xmlns:dc="http://purl.org/dc/elements/1.1/" xmlns:inkscape="http://www.inkscape.org/namespaces/inkscape" xmlns:rdf="http://www.w3.org/1999/02/22-rdf-syntax-ns#" xmlns:sodipodi="http://sodipodi.sourceforge.net/DTD/sodipodi-0.dtd" xmlns:svg="http://www.w3.org/2000/svg"
	 xmlns="http://www.w3.org/2000/svg" xmlns:xlink="http://www.w3.org/1999/xlink" x="0px" y="0px" viewBox="0 0 280 180"
	 style="enable-background:new 0 0 280 180;" xml:space="preserve">
<style type="text/css">
	.st0{fill:#F2F2F2;}
	.st1{fill:none;}
	.st2{font-family:'MyriadPro-Regular';}
	.st3{font-size:28px;}
</style>
<sodipodi:namedview  bordercolor="#666666" borderopacity="1" gridtolerance="10" guidetolerance="10" id="namedview20" inkscape:current-layer="Express" inkscape:cx="-2.1694915" inkscape:cy="64" inkscape:pageopacity="0" inkscape:pageshadow="2" inkscape:window-height="1001" inkscape:window-maximized="1" inkscape:window-width="1920" inkscape:window-x="-9" inkscape:window-y="-9" inkscape:zoom="1.84375" objecttolerance="10" pagecolor="#ffffff" showgrid="false">
	</sodipodi:namedview>
<path class="st0" d="M250,180H30c-16.6,0-30-13.4-30-30V30C0,13.4,13.4,0,30,0h220c16.6,0,30,13.4,30,30v120
	C280,166.6,266.6,180,250,180z"/>
<g id="original-wordmark" transform="matrix(0.85101532,0,0,0.85101532,5.5198422,-24.472693)">
	<path id="path4" inkscape:connector-curvature="0" d="M92.8,168v-61h3.4v9.7c0.4-0.4,0.7-0.9,1.1-1.3c2.7-5.6,8.5-9.4,14.8-9.2
		c7.4-0.2,13.7,2.5,17.3,9.2c4.7,8.5,4.9,18.7,0.7,27.2c-3.4,7.4-11.7,11.2-20.5,9.9c-5.6-0.4-10.6-3.8-13.3-8.8V168
		C96.4,168,92.8,168,92.8,168z M96.2,128.7c0.2,2.9,0.4,5.2,0.7,7.2c1.3,8.1,6.1,13,13.7,13.9c7.4,1.1,14.4-2.9,17.1-9.9
		c2.9-7,2.7-14.8-0.7-21.8c-2.7-6.3-9.2-9.9-16-8.8c-6.3,0.4-11.7,4.9-13.3,11C97.1,122.8,96.6,125.8,96.2,128.7z"/>
	<path id="path6" inkscape:connector-curvature="0" d="M200.6,137c-1.1,8.8-8.5,15.5-17.3,15.7c-13.9,0.7-20.5-8.5-21.4-19.1
		c-0.7-5.8,0.2-11.7,2.7-16.9c3.6-7.4,11.5-11.7,19.6-10.6c7.6,0.7,14.2,6.1,16,13.7c0.7,3.4,1.1,6.7,1.6,10.1h-36.4
		c-0.7,9.7,4.5,17.3,11.9,19.1c9.2,2.2,16.9-1.8,19.8-10.3C197.4,136.6,198.5,136.3,200.6,137z M165.2,126.9h32.6
		c-0.2-10.3-6.5-17.8-15.3-17.8C172.7,108.9,165.7,116.1,165.2,126.9z"/>
	<path id="path8" inkscape:connector-curvature="0" d="M207.3,137.2h3.1c0.2,4.7,3.1,9,7.4,11c5.4,2.5,11.7,2.2,17.1-0.4
		c2.9-1.3,4.7-4.3,4.5-7.4c0.2-3.1-1.8-5.8-4.7-7c-3.6-1.3-7.2-2-10.8-3.1c-3.8-1.1-7.4-2.5-10.8-4c-5.8-2.7-6.1-13.7,0.4-17.3
		c6.7-3.8,15.1-4,22-0.4c4.3,2.2,6.5,7,5.8,11.7h-2.7c0-0.2-0.2-0.2-0.2-0.4c-0.4-8.8-7.6-11.5-15.5-10.8c-2.2,0.2-4.7,0.9-6.7,2
		c-2.7,1.1-4.3,3.8-3.8,6.7c0,2.9,1.8,5.4,4.5,6.3c3.4,1.3,7.2,2,10.6,3.1c2.9,0.7,5.8,1.3,8.5,2.2c4,1.3,6.7,4.9,7,9.2
		c0.7,4.7-1.6,9.2-5.8,11.2c-7.4,4.3-19.8,3.1-25.4-2.2C208.9,145.1,207.3,141.1,207.3,137.2z"/>
	<path id="path10" inkscape:connector-curvature="0" d="M283.4,120.4h-2.9c0-0.4-0.2-0.7-0.2-1.1c0-4.7-3.4-8.5-7.9-9.4
		c-4-1.1-8.5-0.9-12.6,0.7c-3.4,0.9-5.6,3.8-5.6,7.2c-0.2,3.4,2.2,6.3,5.4,7.2c4.5,1.3,9.2,2.2,13.7,3.6c1.6,0.4,2.9,0.9,4.3,1.3
		c5.8,2,9,8.5,6.7,14.4c-1.1,2.9-3.4,5.4-6.3,6.5c-6.5,2.9-13.7,2.9-20.2,0.2c-5.4-2.2-8.8-7.9-8.5-13.7h1.3h1.6
		c1.8,8.8,10.6,14.6,19.3,12.8c2-0.4,3.8-1.1,5.6-2.2c2.7-1.3,4.5-4.3,4.3-7.4c0.2-3.1-1.8-5.8-4.7-7c-3.6-1.3-7.2-2-10.8-3.1
		c-3.8-1.1-7.4-2.2-11-4c-5.6-2.7-6.1-13.7,0.4-17.1c7-4,15.3-4,22.3-0.2C281.8,111.1,284,115.6,283.4,120.4z"/>
	<path id="path12" inkscape:connector-curvature="0" d="M87.4,151.6c-2.5,0.9-5.2-0.2-6.3-2.5c-3.6-5.4-7.6-10.8-11.7-16.2l-1.8-2.2
		c-4.7,6.3-9.2,12.1-13.5,18.4c-1.1,2.2-3.8,3.1-6.1,2.5l17.5-23.4l-16.2-21.1c2.5-0.9,5.2,0,6.5,2.2c3.8,5.4,7.9,10.8,12.1,16.2
		c4.3-5.6,8.3-10.8,12.1-16.2c1.1-2.2,3.8-3.1,6.1-2.2l-6.3,8.3c-2.7,3.8-5.6,7.4-8.5,11c-0.9,0.9-0.9,2.2-0.2,3.1l0.2,0.2
		C76.6,137,82,144.2,87.4,151.6z"/>
	<path id="path14" inkscape:connector-curvature="0" d="M161.2,106.9v3.1c-9-0.7-16.6,6.3-17.3,15.3c0,0.4,0,1.1,0,1.6
		c0,7.4,0,14.8,0,22.3c0,0.7,0,1.6,0,2.5h-3.1v-44.5h3.1v9.2C147.7,109.6,153.8,107.1,161.2,106.9z"/>
	<path id="path16" inkscape:connector-curvature="0" d="M6.4,128c0.4-2.2,0.7-4.7,1.3-7c3.8-13.9,19.8-19.6,30.6-11
		c6.3,4.9,8.1,12.1,7.6,20.2H10c-0.4,14.2,9.9,22.7,23.2,18.4c4.3-1.6,7.6-5.2,8.8-9.7c0.7-2.2,1.8-2.7,4-2
		c-0.7,5.6-3.8,10.6-8.8,13.3c-8.1,4.5-18,3.1-24.7-3.1c-3.1-3.6-5.2-8.1-5.6-13c0-0.7-0.2-1.6-0.4-2.2C6.4,130.5,6.4,129.1,6.4,128
		z M10.2,126.9h32.6c-0.2-10.3-6.7-17.8-15.5-17.8C17.7,109.1,10.7,116.3,10.2,126.9L10.2,126.9z"/>
</g>
<rect x="253.3" y="94.2" class="st1" width="23.6" height="27.7"/>
<text transform="matrix(1 0 0 1 253.3163 114.0524)" class="st2 st3">js</text>
</svg>
