<?xml version="1.0" encoding="utf-8"?>
<!-- Generator: Adobe Illustrator 24.3.0, SVG Export Plug-In . SVG Version: 6.00 Build 0)  -->
<svg version="1.1" xmlns="http://www.w3.org/2000/svg" xmlns:xlink="http://www.w3.org/1999/xlink" x="0px" y="0px"
	 viewBox="0 0 250 250" style="enable-background:new 0 0 250 250;" xml:space="preserve">
<style type="text/css">
	.st0{fill:#FCFAFA;}
	.st1{fill:none;}
	.st2{font-family:'MyriadPro-Regular';}
	.st3{font-size:50px;}
</style>
<g id="Camada_2">
	<path class="st0" d="M220,250H30c-16.6,0-30-13.4-30-30V30C0,13.4,13.4,0,30,0h190c16.6,0,30,13.4,30,30v190
		C250,236.6,236.6,250,220,250z"/>
</g>
<g id="Express" xmlns:cc="http://creativecommons.org/ns#" xmlns:dc="http://purl.org/dc/elements/1.1/" xmlns:inkscape="http://www.inkscape.org/namespaces/inkscape" xmlns:rdf="http://www.w3.org/1999/02/22-rdf-syntax-ns#" xmlns:sodipodi="http://sodipodi.sourceforge.net/DTD/sodipodi-0.dtd" xmlns:svg="http://www.w3.org/2000/svg">
	
		<sodipodi:namedview  bordercolor="#666666" borderopacity="1" gridtolerance="10" guidetolerance="10" id="namedview20" inkscape:current-layer="Express" inkscape:cx="-2.1694915" inkscape:cy="64" inkscape:pageopacity="0" inkscape:pageshadow="2" inkscape:window-height="1001" inkscape:window-maximized="1" inkscape:window-width="1920" inkscape:window-x="-9" inkscape:window-y="-9" inkscape:zoom="1.84375" objecttolerance="10" pagecolor="#ffffff" showgrid="false">
		</sodipodi:namedview>
	<g id="original-wordmark" transform="matrix(0.85101532,0,0,0.85101532,5.5198422,-24.472693)">
		<path id="path12" inkscape:connector-curvature="0" d="M240.1,227.2c-6.9,2.6-14.6-0.3-18.1-6.9c-10.4-15.5-21.8-30.3-32.8-45.5
			l-4.8-6.4c-13.1,17.5-26.2,34.4-38.1,51.9c-3.2,6.2-10.6,9.1-17.2,6.7l49.1-65.9l-45.7-59.6c6.8-2.4,14.4,0.2,18.1,6.4
			c10.6,15.5,22.4,30.3,34.1,46c11.8-15.6,23.4-30.5,34.3-45.8c3.2-6.1,10.6-8.9,17-6.4l-17.7,23.5c-7.9,10.5-15.8,21-24,31.3
			c-2.6,2.3-2.8,6.4-0.5,9c0.2,0.2,0.3,0.3,0.5,0.5C209.5,186.3,224.6,206.5,240.1,227.2z"/>
		<path id="path16" inkscape:connector-curvature="0" d="M11.4,160.4c1.3-6.4,2.2-13.3,4-19.8c11-39.1,55.8-55.4,86.7-31.2
			c18.1,14.2,22.6,34.3,21.7,56.9H22c-1.7,40.4,27.5,64.8,64.8,52.4c12.3-4.4,21.5-14.7,24.6-27.4c2-6.4,5.1-7.4,11.2-5.6
			c-2,15.7-11.1,29.6-24.7,37.7c-22.7,12.4-50.8,8.8-69.6-8.9c-9.1-10.2-14.6-23.1-15.6-36.7c0-2.2-0.8-4.3-1.3-6.4
			C11.4,167.7,11.4,164,11.4,160.4z M22.2,157.7h92c-0.6-29.3-19.1-50.1-43.7-50.3c-27.5-0.4-47.1,20-48.3,50.2L22.2,157.7z"/>
		<rect x="248.2" y="218.5" class="st1" width="40.8" height="44.7"/>
		<text transform="matrix(1.1751 0 0 1.1751 244.5854 256.2586)" class="st2 st3">js</text>
	</g>
</g>
</svg>
