<?xml version="1.0" encoding="utf-8"?>
<!-- Generator: Adobe Illustrator 24.3.0, SVG Export Plug-In . SVG Version: 6.00 Build 0)  -->
<svg version="1.1" id="Camada_1" xmlns="http://www.w3.org/2000/svg" xmlns:xlink="http://www.w3.org/1999/xlink" x="0px" y="0px"
	 viewBox="0 0 256 108" style="enable-background:new 0 0 256 108;" xml:space="preserve">
<style type="text/css">
	.st0{fill:#6D6D6D;}
	.st1{fill:#DE4C36;}
</style>
<g>
	<path class="st0" d="M153,37.2c-5.6,0-9.8,2.7-9.8,9.4c0,5,2.7,8.4,9.5,8.4c5.7,0,9.6-3.4,9.6-8.6C162.2,40.4,158.8,37.2,153,37.2
		L153,37.2L153,37.2z M141.8,83.9c-1.3,1.6-2.6,3.4-2.6,5.4c0,4.1,5.2,5.3,12.3,5.3c5.9,0,13.9-0.4,13.9-5.9c0-3.3-3.9-3.5-8.8-3.8
		L141.8,83.9L141.8,83.9z M171.9,37.5c1.8,2.3,3.8,5.6,3.8,10.3c0,11.3-8.9,17.9-21.7,17.9c-3.3,0-6.2-0.4-8-0.9l-3.4,5.4l10,0.6
		c17.6,1.1,28,1.6,28,15.2c0,11.7-10.3,18.3-28,18.3c-18.4,0-25.4-4.7-25.4-12.7c0-4.6,2-7,5.6-10.4c-3.4-1.4-4.5-4-4.5-6.7
		c0-2.2,1.1-4.3,3-6.2c1.8-1.9,3.9-3.9,6.3-6.1c-5-2.4-8.7-7.7-8.7-15.3c0-11.7,7.7-19.7,23.3-19.7c4.4,0,7,0.4,9.4,1h19.8v8.6
		L171.9,37.5L171.9,37.5z"/>
	<path class="st0" d="M199.2,19c-5.8,0-9.2-3.4-9.2-9.2c0-5.8,3.4-8.9,9.2-8.9c5.9,0,9.3,3.2,9.3,8.9C208.4,15.7,205.1,19,199.2,19
		L199.2,19L199.2,19z M186,80.2v-8l5.2-0.7c1.4-0.2,1.6-0.5,1.6-2V39.5c0-1.1-0.3-1.8-1.3-2.1l-5.5-1.9l1.1-8.2h21.1v42.2
		c0,1.6,0.1,1.8,1.6,2l5.2,0.7v8H186L186,80.2z"/>
	<path class="st0" d="M255.3,76.2c-4.4,2.1-10.8,4.1-16.6,4.1c-12.1,0-16.7-4.9-16.7-16.4V37.3c0-0.6,0-1-0.8-1h-7.1v-9.1
		c9-1,12.5-5.5,13.6-16.6h9.7v14.5c0,0.7,0,1,0.8,1h14.3v10.2h-15.2v24.3c0,6,1.4,8.3,6.9,8.3c2.9,0,5.8-0.7,8.2-1.6L255.3,76.2"/>
	<path class="st1" d="M104.5,49.5L58,3c-2.7-2.7-7-2.7-9.7,0l-9.7,9.7l12.3,12.3c2.8-1,6.1-0.3,8.4,2c2.3,2.3,2.9,5.6,1.9,8.4
		L73,47.1c2.9-1,6.2-0.3,8.4,1.9c3.2,3.2,3.2,8.4,0,11.5c-3.2,3.2-8.4,3.2-11.5,0c-2.4-2.4-3-5.9-1.8-8.9l-11-11l0,29
		c0.8,0.4,1.5,0.9,2.2,1.5c3.2,3.2,3.2,8.4,0,11.5c-3.2,3.2-8.4,3.2-11.5,0c-3.2-3.2-3.2-8.4,0-11.5c0.8-0.8,1.7-1.4,2.7-1.8V40.2
		c-1-0.4-1.9-1-2.7-1.8c-2.4-2.4-3-6-1.8-8.9L33.9,17.4L2,49.3c-2.7,2.7-2.7,7,0,9.7l46.5,46.5c2.7,2.7,7,2.7,9.7,0l46.3-46.3
		C107.2,56.6,107.2,52.2,104.5,49.5"/>
</g>
</svg>
