<?xml version="1.0" encoding="utf-8"?>
<!-- Generator: Adobe Illustrator 24.3.0, SVG Export Plug-In . SVG Version: 6.00 Build 0)  -->
<svg version="1.1" id="Layer_1" xmlns="http://www.w3.org/2000/svg" xmlns:xlink="http://www.w3.org/1999/xlink" x="0px" y="0px"
	 viewBox="131 166 350 460" enable-background="new 131 166 350 460" xml:space="preserve">
<title>HTML5 Logo</title>
<polygon fill="#E44D26" points="177.733,582.41 148.923,259.267 465.5,259.267 436.659,582.359 307.018,618.301 "/>
<polygon fill="#ED744A" points="307.212,590.829 411.968,561.786 436.615,285.688 307.212,285.688 "/>
<polygon fill="#EBEBEB" points="307.212,405.538 254.768,405.538 251.146,364.954 307.212,364.954 307.212,325.321 307.074,325.321 
	207.832,325.321 208.781,335.954 218.522,445.169 307.212,445.169 "/>
<polygon fill="#EBEBEB" points="307.212,508.467 307.038,508.513 262.899,496.595 260.077,464.987 238.63,464.987 220.293,464.987 
	225.845,527.215 307.029,549.752 307.212,549.701 "/>
<path d="M171.87,178.752h21.695v21.434h19.845v-21.434h21.696v64.908h-21.695v-21.735h-19.845v21.735h-21.694v-64.908H171.87z"/>
<path d="M263.635,200.276h-19.098v-21.524h59.902v21.524h-19.108v43.384h-21.695v-43.384H263.635z"/>
<path d="M313.946,178.752h22.621l13.915,22.806l13.901-22.806h22.63v64.908h-21.605v-32.172l-14.926,23.078h-0.373l-14.936-23.078
	v32.172h-21.227V178.752z"/>
<path d="M397.81,178.752h21.701v43.453h30.508v21.455h-52.21V178.752z"/>
<polygon fill="#FFFFFF" points="307.074,405.538 307.074,445.169 355.877,445.169 351.276,496.57 307.074,508.5 307.074,549.732 
	388.322,527.215 388.918,520.519 398.232,416.18 399.199,405.538 388.519,405.538 "/>
<polygon fill="#FFFFFF" points="307.074,325.321 307.074,349.936 307.074,364.857 307.074,364.954 402.678,364.954 402.678,364.954 
	402.805,364.954 403.6,356.046 405.406,335.954 406.353,325.321 "/>
</svg>
