<?xml version="1.0" encoding="utf-8"?>
<!-- Generator: Adobe Illustrator 24.3.0, SVG Export Plug-In . SVG Version: 6.00 Build 0)  -->
<svg version="1.1" id="Camada_1" xmlns="http://www.w3.org/2000/svg" xmlns:xlink="http://www.w3.org/1999/xlink" x="0px" y="0px"
	 viewBox="0 0 250 250" enable-background="new 0 0 250 250" xml:space="preserve">
<g id="Camada_2_1_">
</g>
<g id="Camada_1_1_">
	<path fill="#FFFFFF" d="M20.556,251h208.889c11.389,0,20.556-9.167,20.556-20.556V21.556C250,10.167,240.833,1,229.444,1H20.556
		C9.167,1,0,10.167,0,21.556v208.889C0,241.833,9.167,251,20.556,251"/>
	<path fill-rule="evenodd" clip-rule="evenodd" fill="#0073B0" d="M20.556,251h208.889c11.389,0,20.556-9.167,20.556-20.556V21.556
		C250,10.167,240.833,1,229.444,1H20.556C9.167,1,0,10.167,0,21.556v208.889C0,241.833,9.167,251,20.556,251z M95.556,96.556h35
		v17.5c4.722-9.444,18.333-19.444,36.389-19.444c34.444,0,46.389,15.556,46.389,52.778v66.667h-36.667v-58.889
		c0-19.444-3.889-30.278-18.056-30.278c-19.167,0-26.111,14.722-26.111,30.278v58.889H95.833L95.556,96.556L95.556,96.556z
		 M36.667,214.333h36.667V96.556H36.667V214.333z M77.5,56.278c0,12.5-10,22.5-22.5,22.5s-22.5-10-22.5-22.5s10-22.5,22.5-22.5
		S77.5,43.778,77.5,56.278z"/>
</g>
</svg>
