<?xml version="1.0" encoding="utf-8"?>
<!-- Generator: Adobe Illustrator 24.3.0, SVG Export Plug-In . SVG Version: 6.00 Build 0)  -->
<svg version="1.1" id="Camada_1" xmlns="http://www.w3.org/2000/svg" xmlns:xlink="http://www.w3.org/1999/xlink" x="0px" y="0px"
	 viewBox="0 0 370 105" style="enable-background:new 0 0 370 105;" xml:space="preserve">
<style type="text/css">
	.st0{fill:none;}
	.st1{fill-rule:evenodd;clip-rule:evenodd;fill:#0073B0;}
	.st2{fill-rule:evenodd;clip-rule:evenodd;fill:#0073B1;}
</style>
<path class="st0" d="M282.1,97.5h75.2c4.1,0,7.4-3.3,7.4-7.4V14.9c0-4.1-3.3-7.4-7.4-7.4h-75.2c-4.1,0-7.4,3.3-7.4,7.4v75.2
	C274.7,94.2,278,97.5,282.1,97.5"/>
<path class="st1" d="M282.1,97.5h75.2c4.1,0,7.4-3.3,7.4-7.4V14.9c0-4.1-3.3-7.4-7.4-7.4h-75.2c-4.1,0-7.4,3.3-7.4,7.4v75.2
	C274.7,94.2,278,97.5,282.1,97.5z M309.1,41.9h12.6v6.3c1.7-3.4,6.6-7,13.1-7c12.4,0,16.7,5.6,16.7,19v24h-13.2V63
	c0-7-1.4-10.9-6.5-10.9c-6.9,0-9.4,5.3-9.4,10.9v21.2h-13.2L309.1,41.9L309.1,41.9z M287.9,84.3h13.2V41.9h-13.2V84.3z M302.6,27.4
	c0,4.5-3.6,8.1-8.1,8.1s-8.1-3.6-8.1-8.1s3.6-8.1,8.1-8.1S302.6,22.9,302.6,27.4z"/>
<path class="st2" d="M261.4,84.3H250v-4.8h-0.2c-1.4,2.2-6.3,5.4-12.2,5.4c-14.4,0-21.2-9.1-21.2-21.8s7.1-21.8,19.9-21.8
	c6.2,0,9.8,2.3,11.9,5.4v-26h13.2V84.3L261.4,84.3z M238.8,51.4c-6.1,0-9.7,5-9.7,12s3.6,11.3,9.7,11.3c6.2,0,9.9-4.3,9.9-11.3
	C248.7,56.4,244.9,51.4,238.8,51.4z M209.7,77.2c-3.4,4.3-10,7.7-19.7,7.7c-13.1,0-21.5-8.9-21.5-22.5c0-11.6,8.2-21.2,22.5-21.2
	c12.1,0,20.6,8.5,20.6,22.1c0,2.6-0.6,5-0.6,5h-30.3l0.1,0.6c1,3.3,4.3,6.7,9.8,6.7c4.9,0,9.2-2.5,11.1-4.7L209.7,77.2L209.7,77.2z
	 M199.8,58.5c-0.5-4.4-4.3-7.9-9.2-7.9c-5.9,0-9.8,3.8-10.1,7.9H199.8z M126.4,20.7h13.2v38.5l14.7-17.3h16l-18.5,20.2l18.8,22.1
	h-15.3l-15.7-19.6v19.6h-13.2L126.4,20.7L126.4,20.7z M76.1,41.9h11.5v5.9h0.2c1.8-3.4,7.2-6.6,13.8-6.6c13.6,0,16.9,7.7,16.9,19.3
	v23.7h-13.2V63.4c0-5-0.3-11.5-7.1-11.5c-7,0-8.7,5.9-8.7,11.5v20.9H76.1V41.9L76.1,41.9z M61.6,21.1c4,0,7.6,3.6,7.6,7.6
	s-3.6,7.6-7.6,7.6S54,32.7,54,28.7S57.6,21.1,61.6,21.1z M55,84.3h13.2V41.9H55V84.3z M7.3,20.7h13.2V71H47v13.2H7.3V20.7z"/>
</svg>
