<?xml version="1.0" encoding="utf-8"?>
<!-- Generator: Adobe Illustrator 24.3.0, SVG Export Plug-In . SVG Version: 6.00 Build 0)  -->
<svg version="1.1" id="Camada_1" xmlns="http://www.w3.org/2000/svg" xmlns:xlink="http://www.w3.org/1999/xlink" x="0px" y="0px"
	 viewBox="0 0 250 250" enable-background="new 0 0 250 250" xml:space="preserve">
<g id="Camada_2_1_">
</g>
<g id="Camada_1_1_">
	<path fill="#FFFFFF" d="M36.884,228.4h174.359c9.506,0,17.158-7.652,17.158-17.158V36.884c-0.001-9.506-7.652-17.158-17.159-17.158
		H36.884c-9.506,0-17.158,7.652-17.158,17.158v174.359C19.726,220.748,27.378,228.4,36.884,228.4"/>
	<path fill-rule="evenodd" clip-rule="evenodd" fill="#0073B0" d="M40,250h170.001c22.091,0,40-17.909,40-40V40
		c0-22-20.557-40-40-40.013L40,0C17.909,0,0,17.909,0,40v170C0,232.091,17.909,250,40,250z M95.556,95.556h35v17.5
		c4.722-9.444,18.333-19.444,36.389-19.444c34.444,0,46.389,15.556,46.389,52.778v66.667h-36.667v-58.889
		c0-19.444-3.889-30.278-18.056-30.278c-19.167,0-26.111,14.722-26.111,30.278v58.889H95.833L95.556,95.556L95.556,95.556z
		 M36.667,213.333h36.667V95.556H36.667V213.333z M77.478,54.267c0.571,13.306-10.183,24.061-23.49,23.49
		c-11.526-0.495-20.972-9.941-21.467-21.467c-0.571-13.306,10.183-24.061,23.49-23.49C67.538,33.294,76.984,42.74,77.478,54.267z"/>
</g>
</svg>
