<?xml version="1.0" encoding="utf-8"?>
<!-- Generator: Adobe Illustrator 24.3.0, SVG Export Plug-In . SVG Version: 6.00 Build 0)  -->
<svg version="1.1" id="Camada_1" xmlns="http://www.w3.org/2000/svg" xmlns:xlink="http://www.w3.org/1999/xlink" x="0px" y="0px"
	 viewBox="0 0 280 280" style="enable-background:new 0 0 280 280;" xml:space="preserve">
<style type="text/css">
	.st0{fill:#00D8FF;}
	.st1{fill:none;stroke:#00D8FF;stroke-width:10;stroke-miterlimit:10;}
</style>
<ellipse class="st0" cx="140.3" cy="139.9" rx="23.3" ry="26.4"/>
<path class="st1" d="M140.3,91.7c31.3,0,60.4,4.6,82.3,12.2c26.4,9.3,42.7,23.3,42.7,36c0,13.2-17.2,28.1-45.6,37.7
	c-21.5,7.2-49.7,11-79.4,11c-30.5,0-59.3-3.5-81-11.1c-27.4-9.5-44-24.6-44-37.6c0-12.6,15.5-26.5,41.6-35.8
	C78.9,96.4,108.7,91.7,140.3,91.7L140.3,91.7z"/>
<path class="st1" d="M99,116c15.6-27.6,34.1-50.9,51.6-66.4c21.1-18.7,41.1-26,52-19.6c11.3,6.6,15.4,29.2,9.3,59
	c-4.6,22.5-15.4,49.3-30.3,75.5c-15.2,26.9-32.7,50.5-49.9,65.9c-21.8,19.4-43,26.4-54,20c-10.7-6.3-14.8-26.9-9.7-54.5
	C72.3,172.4,83.2,143.8,99,116L99,116z"/>
<path class="st1" d="M99,164.5C83.4,136.9,72.7,109,68.2,85.8c-5.4-27.9-1.6-49.2,9.2-55.6c11.3-6.6,32.6,1.1,54.9,21.2
	c16.9,15.3,34.3,38.2,49.1,64.4c15.3,26.8,26.7,54,31.2,76.9c5.6,28.9,1.1,51.1-10,57.6c-10.7,6.3-30.3-0.4-51.2-18.7
	C133.8,216.2,114.9,192.3,99,164.5L99,164.5z"/>
</svg>
