<?xml version="1.0" encoding="utf-8"?>
<!-- Generator: Adobe Illustrator 24.3.0, SVG Export Plug-In . SVG Version: 6.00 Build 0)  -->
<svg version="1.1" id="Camada_1" xmlns="http://www.w3.org/2000/svg" xmlns:xlink="http://www.w3.org/1999/xlink" x="0px" y="0px"
	 viewBox="0 0 250 250" enable-background="new 0 0 250 250" xml:space="preserve">
<path fill="#C65D97" d="M117.897,33.619c-11.77-0.621-25.004,1.183-37.949,5.677c-20.571,7.137-42.82,18.363-58.818,32.988
	C2.125,89.689-0.923,104.838,0.326,111.175c4.447,22.478,36.147,37.142,48.831,47.985c-0.625,0.341-1.207,0.635-1.757,0.943
	c-6.363,3.09-29.967,15.228-36.013,28.287c-6.829,14.808,1.13,25.406,6.36,26.855c16.315,4.431,32.46-3.313,41.43-16.396
	c8.978-13.092,7.897-30.178,3.757-37.965c-0.042-0.117-0.121-0.192-0.163-0.309c1.641-0.958,3.311-1.921,4.994-2.879
	c3.24-1.874,6.401-3.584,9.174-5.075c-1.566,4.122-2.694,9.095-3.286,16.266c-0.7,8.395,2.844,19.256,7.45,23.537
	c2.032,1.874,4.486,1.919,6.002,1.919c5.388,0,7.81-4.351,10.492-9.548c3.315-6.338,6.246-13.696,6.246-13.696
	s-3.659,19.91,6.376,19.91c3.664,0,7.338-4.613,8.979-6.978v0.033c0,0,0.06-0.147,0.26-0.455c0.391-0.575,0.586-0.911,0.586-0.911
	v-0.114c1.482-2.482,4.733-8.165,9.613-17.551c6.321-12.134,12.362-27.294,12.362-27.294c0.583,3.331,1.391,6.618,2.424,9.841
	c1.091,3.623,3.405,7.595,5.238,11.451c-1.482,1.982-2.391,3.123-2.391,3.123c0,0.033,0.024,0.065,0.049,0.081
	c-1.174,1.524-2.506,3.159-3.871,4.766c-4.997,5.805-10.937,12.456-11.712,14.363c-0.941,2.249-0.701,3.922,1.09,5.221
	c1.324,0.991,3.684,1.143,6.132,0.96c4.489-0.308,7.65-1.383,9.174-2.066c2.807-0.983,5.458-2.335,7.873-4.034
	c4.88-3.515,7.855-8.555,7.58-15.193c-0.158-3.664-1.38-7.337-2.863-10.768c0.433-0.608,0.909-1.254,1.334-1.903
	c7.729-11.027,13.696-23.13,13.696-23.13c0.583,3.331,1.391,6.618,2.424,9.841c0.941,3.09,2.775,6.485,4.457,9.808
	c-7.254,5.763-11.756,12.446-13.322,16.835c-2.89,8.128-0.612,11.781,3.644,12.622c1.916,0.383,4.637-0.485,6.669-1.318
	c3.015-0.983,5.852-2.413,8.426-4.245c4.88-3.515,9.604-8.432,9.288-15.111c-0.117-3.015-0.966-6.032-2.098-8.93
	c6.13-2.515,14.084-3.89,24.236-2.749c21.737,2.482,25.996,15.762,25.18,21.292c-0.816,5.538-5.389,8.632-6.913,9.548
	c-1.524,0.916-1.987,1.261-1.871,1.952c0.192,0.991,0.889,0.949,2.18,0.716c1.799-0.308,11.392-4.501,11.825-14.77
	c0.624-12.969-12.122-27.234-34.712-27.132h-0.033c-7.842,0.005-15.574,1.763-22.61,5.156c-2.307-4.539-4.692-8.511-5.075-11.484
	c-0.466-3.473-0.964-5.532-0.423-9.646c0.55-4.122,3.002-9.969,2.96-10.394c-0.042-0.416-0.549-2.512-5.579-2.554
	s-9.374,0.954-9.874,2.245c-0.891,2.374-1.583,4.805-2.066,7.287c-0.899,4.464-10.069,20.422-15.258,28.742
	c-1.716-3.248-3.157-6.103-3.465-8.393c-0.466-3.473-0.981-5.532-0.439-9.646c0.55-4.122,3.018-9.969,2.977-10.394
	c-0.042-0.416-0.549-2.512-5.579-2.554s-9.382,0.954-9.89,2.245c-0.508,1.299-1.058,4.347-2.066,7.287
	c-1.016,2.94-13.231,29.516-16.429,36.42c-1.641,3.514-3.05,6.34-4.067,8.247c-0.158,0.308-0.267,0.501-0.342,0.651
	c0.117-0.192,0.195-0.384,0.195-0.309c-0.858,1.641-1.366,2.554-1.366,2.554v0.033c-0.666,1.224-1.407,2.342-1.757,2.342
	c-0.233,0-0.744-3.207,0.114-7.596c1.832-9.236,6.174-23.59,6.132-24.09c-0.042-0.267,0.802-2.75-2.863-4.083
	c-3.556-1.258-4.824,0.846-5.14,0.846s-0.553,0.765-0.553,0.765s3.93-16.185-7.58-16.185c-7.187,0-17.184,7.709-22.089,14.688
	c-3.081,1.641-9.758,5.198-16.787,8.979c-2.69,1.449-5.453,2.936-8.068,4.343c-0.192-0.192-0.353-0.378-0.553-0.569
	c-13.975-14.583-39.772-24.892-38.681-44.471c0.391-7.137,2.94-25.867,49.612-48.619c38.26-18.622,68.845-13.515,74.108-2.147
	c7.57,16.223-16.36,46.419-56.085,50.766c-15.141,1.641-22.116-4.756-24.106-6.897c-2.065-2.249-2.389-2.368-3.172-1.952
	c-1.291,0.683-0.466,2.672,0,3.855c1.174,3.015,6.393,7.737,14.705,10.41c7.304,2.332,24.075,4.29,45.545-3.839
	c24.119-9.086,42.543-33.768,37.038-54.947C153.075,42.448,137.514,34.654,117.897,33.619z M105.096,135.851
	c0.61,0.045,1.064,0.271,1.318,0.699c1.366,2.257-4.746,18.87-6.311,22.61c-2.498,5.996-7.773,21.271-10.98,20.463
	c-2.732-0.683-4.417-12.33-0.553-23.781c1.949-5.763,6.091-12.633,8.556-15.306C100.08,137.3,103.264,135.716,105.096,135.851z
	 M186.215,154.687c0.458,1.333,0.699,2.732,0.732,4.132c-0.042,8.595-6.32,11.794-10.101,13.127
	c-0.783-0.533-0.679-2.334,1.936-7.905C179.797,161.867,182.151,158.202,186.215,154.687z M55.094,164.154
	c3.24,11.601,0.12,21.835-7.45,29.897c-7.179,7.67-17.254,10.573-21.585,8.133c-4.647-2.64-2.81-13.944,6.051-22.122
	c5.388-4.964,12.344-9.539,16.949-12.362c1.058-0.608,2.567-1.527,4.441-2.635c0.316-0.192,0.472-0.26,0.472-0.26
	C54.321,164.58,54.702,164.387,55.094,164.154z M153.178,165.488c0,0.192,0.049,0.393,0.049,0.618
	c-0.05,6.829-6.777,11.441-9.825,13.273h0.033v0.016c-1.058,0.533-2.039,0.868-2.505,0.602c-0.35-0.192,0.439-0.911,0.439-0.911
	s5.423-5.697,7.564-8.296C150.182,169.267,151.621,167.47,153.178,165.488z"/>
</svg>
