<?xml version="1.0" encoding="utf-8"?>
<!-- Generator: Adobe Illustrator 24.3.0, SVG Export Plug-In . SVG Version: 6.00 Build 0)  -->
<svg version="1.1" id="Camada_1" xmlns="http://www.w3.org/2000/svg" xmlns:xlink="http://www.w3.org/1999/xlink" x="0px" y="0px"
	 viewBox="0 0 250 250" enable-background="new 0 0 250 250" xml:space="preserve">
<path fill="#0179CB" d="M241.146,26.439l-51.458-24.89c-5.96-2.885-13.084-1.667-17.76,3.037l-98.54,90.366L30.472,62.198
	c-3.995-3.046-9.583-2.795-13.291,0.597L3.41,75.381c-4.257,3.89-4.571,10.512-0.701,14.792c0.219,0.242,0.45,0.474,0.691,0.695
	l37.218,34.136L3.399,159.14c-4.252,3.896-4.557,10.519-0.681,14.793c0.22,0.242,0.45,0.474,0.692,0.694l13.781,12.576
	c3.709,3.392,9.297,3.643,13.291,0.597l42.916-32.754l98.54,90.366c4.671,4.705,11.793,5.924,17.75,3.037l51.478-24.89
	c5.405-2.622,8.838-8.124,8.833-14.157V40.596C250,34.559,246.559,29.055,241.146,26.439z M187.542,182.051l-74.77-57.047
	l74.77-57.047V182.051z"/>
</svg>
